<?xml version="1.0" standalone="no"?><!DOCTYPE svg PUBLIC "-//W3C//DTD SVG 1.1//EN" "http://www.w3.org/Graphics/SVG/1.1/DTD/svg11.dtd"><svg t="1687098122022" class="icon" viewBox="0 0 1024 1024" version="1.1" xmlns="http://www.w3.org/2000/svg" p-id="4214" xmlns:xlink="http://www.w3.org/1999/xlink" width="200" height="200"><path d="M896.00021 952v48c0 13.254-10.746 24-24 24H152.00021c-13.254 0-24-10.746-24-24v-48c0-13.254 10.746-24 24-24h720c13.254 0 24 10.746 24 24z m-16.066-648H560.00021v-96h100a12 12 0 0 0 12-12V124a12 12 0 0 0-12-12h-100V12a12 12 0 0 0-12-12h-72a12 12 0 0 0-12 12v100h-100a12 12 0 0 0-12 12v72a12 12 0 0 0 12 12h100v96H144.06621c-55.148 0-93.758 54.488-75.476 106.518L239.16421 896h545.672l170.574-485.482C973.69221 358.488 935.08221 304 879.93421 304z" p-id="4215"></path></svg>